<?xml version="1.0" encoding="utf-8"?>
<!-- Generator: Adobe Illustrator 16.0.0, SVG Export Plug-In . SVG Version: 6.00 Build 0)  -->
<!DOCTYPE svg PUBLIC "-//W3C//DTD SVG 1.1//EN" "http://www.w3.org/Graphics/SVG/1.1/DTD/svg11.dtd">
<svg version="1.1" id="Layer_1" xmlns="http://www.w3.org/2000/svg" xmlns:xlink="http://www.w3.org/1999/xlink" x="0px" y="0px"
	 width="640.089px" height="115.105px" viewBox="0 0 640.089 115.105" enable-background="new 0 0 640.089 115.105"
	 xml:space="preserve">
<g>
	<circle fill="#FBBA00" cx="48.062" cy="55.382" r="16.5"/>
	<circle fill="#FBBA00" cx="331.838" cy="60.882" r="13"/>
	<g>
		<path fill="#26358C" d="M70.481,98.014c-17.722-4.87-30.922-10.808-39.6-17.812c-8.679-7.005-13.018-15.221-13.018-24.648
			c0-4.062,0.728-7.773,2.186-11.133s3.644-6.406,6.559-9.141c2.836-2.63,6.056-4.615,9.661-5.957
			c3.605-1.341,7.528-2.012,11.77-2.012s8.178,0.671,11.809,2.012c3.63,1.342,6.851,3.327,9.662,5.957
			c2.915,2.709,5.088,5.742,6.519,9.102c1.432,3.359,2.147,7.084,2.147,11.172c0,5.261-1.218,9.922-3.652,13.984
			c-2.436,4.062-6.049,7.475-10.84,10.234c1.9,1.094,4.355,2.188,7.363,3.281s6.764,2.266,11.27,3.516L70.481,98.014z
			 M36.849,55.475c0,3.516,1.053,6.42,3.159,8.711c2.105,2.292,4.783,3.438,8.033,3.438c3.223,0,5.888-1.146,7.994-3.438
			c2.106-2.291,3.159-5.195,3.159-8.711s-1.053-6.412-3.159-8.691c-2.105-2.278-4.771-3.418-7.994-3.418
			c-3.25,0-5.927,1.14-8.033,3.418C37.901,49.063,36.849,51.959,36.849,55.475z"/>
		<path fill="#26358C" d="M83.783,39.1h15.219v23.375c0,3.104,0.656,5.417,1.969,6.938c1.312,1.521,3.323,2.281,6.031,2.281
			c2.708,0,4.719-0.76,6.031-2.281c1.312-1.521,1.969-3.833,1.969-6.938V39.1h15.25v23.75c0,6.875-1.948,12.053-5.844,15.531
			c-3.896,3.479-9.698,5.219-17.406,5.219c-7.688,0-13.479-1.739-17.375-5.219c-3.896-3.479-5.844-8.656-5.844-15.531V39.1z"/>
		<path fill="#26358C" d="M130.581,82.819L150.987,39.1h15.938l19.906,43.719h-15.156l-2.938-7.5h-19.781l-3.094,7.5H130.581z
			 M152.393,66.944h13l-6.406-16.188L152.393,66.944z"/>
		<path fill="#26358C" d="M195.003,82.819V63.288L178.035,39.1h17.594l8.25,13.688l8.406-13.688h15.031l-17.094,24.656v19.062
			H195.003z"/>
		<path fill="#26358C" d="M303.165,46.803c-2.734-1.719-5.463-3.001-8.184-3.848c-2.722-0.846-5.541-1.27-8.457-1.27
			c-4.531,0-8.171,1.264-10.918,3.789c-2.748,2.526-4.121,5.859-4.121,10c0,4.167,1.373,7.526,4.121,10.078
			c2.747,2.553,6.387,3.828,10.918,3.828c2.838,0,5.618-0.436,8.34-1.309c2.721-0.872,5.488-2.193,8.301-3.965l0.469,14.805
			c-3.151,1.641-6.433,2.865-9.844,3.672c-3.412,0.807-7.058,1.211-10.938,1.211c-4.219,0-8.132-0.684-11.738-2.051
			c-3.607-1.367-6.843-3.379-9.707-6.035c-2.943-2.734-5.137-5.768-6.582-9.102c-1.445-3.333-2.168-7.018-2.168-11.055
			c0-4.062,0.729-7.773,2.188-11.133c1.458-3.359,3.646-6.406,6.562-9.141c2.916-2.708,6.217-4.713,9.902-6.016
			c3.685-1.302,7.896-1.953,12.637-1.953c3.281,0,6.504,0.371,9.668,1.113s6.348,1.882,9.551,3.418V46.803z"/>
		<path fill="#26358C" d="M307.708,61.006c0-3.25,0.583-6.219,1.749-8.906s2.915-5.125,5.247-7.312
			c2.269-2.104,4.845-3.692,7.729-4.766c2.883-1.073,6.021-1.609,9.416-1.609c3.393,0,6.542,0.537,9.446,1.609
			c2.904,1.073,5.481,2.662,7.729,4.766c2.332,2.167,4.07,4.594,5.215,7.281c1.146,2.688,1.719,5.667,1.719,8.938
			c0,3.25-0.573,6.209-1.719,8.875c-1.145,2.667-2.883,5.084-5.215,7.25c-2.27,2.125-4.861,3.734-7.776,4.828
			s-6.048,1.641-9.399,1.641c-3.373,0-6.502-0.547-9.385-1.641c-2.885-1.094-5.471-2.703-7.761-4.828
			c-2.353-2.188-4.107-4.614-5.263-7.281C308.286,67.184,307.708,64.236,307.708,61.006z M322.896,60.944
			c0,2.812,0.842,5.136,2.526,6.969c1.685,1.834,3.827,2.75,6.427,2.75c2.578,0,4.71-0.916,6.395-2.75
			c1.685-1.833,2.527-4.156,2.527-6.969s-0.843-5.13-2.527-6.953c-1.685-1.823-3.816-2.734-6.395-2.734
			c-2.6,0-4.742,0.912-6.427,2.734C323.738,55.814,322.896,58.131,322.896,60.944z"/>
		<path fill="#26358C" d="M361.225,82.819V39.1h13.75l19.531,21.906V39.1h14.969v43.719h-13.75l-19.531-21.875v21.875H361.225z"/>
		<path fill="#26358C" d="M455.054,54.006c-2.188-1.375-4.37-2.401-6.547-3.078c-2.177-0.677-4.433-1.016-6.766-1.016
			c-3.625,0-6.536,1.011-8.734,3.031c-2.198,2.021-3.297,4.688-3.297,8c0,3.333,1.099,6.021,3.297,8.062
			c2.198,2.042,5.109,3.062,8.734,3.062c2.271,0,4.495-0.349,6.672-1.047c2.177-0.697,4.391-1.755,6.641-3.172l0.375,11.844
			c-2.521,1.312-5.146,2.292-7.875,2.938s-5.646,0.969-8.75,0.969c-3.375,0-6.505-0.547-9.391-1.641s-5.474-2.703-7.766-4.828
			c-2.354-2.188-4.109-4.614-5.266-7.281c-1.156-2.666-1.734-5.614-1.734-8.844c0-3.25,0.583-6.219,1.75-8.906
			s2.917-5.125,5.25-7.312c2.333-2.167,4.974-3.771,7.922-4.812c2.948-1.042,6.317-1.562,10.109-1.562
			c2.625,0,5.203,0.297,7.734,0.891s5.078,1.505,7.641,2.734V54.006z"/>
		<path fill="#26358C" d="M461.07,82.819V39.1h20.031c6.688,0,11.634,1.058,14.843,3.172c3.207,2.115,4.812,5.37,4.812,9.766
			c0,2.271-0.562,4.224-1.688,5.859c-1.125,1.636-2.824,2.964-5.094,3.984c1.062,0.583,2,1.375,2.812,2.375s1.572,2.323,2.281,3.969
			l6.469,14.594H490.57l-4.281-9.781c-1.562-3.562-2.875-5.875-3.938-6.938s-2.418-1.594-4.062-1.594h-2.125v18.312H461.07z
			 M476.164,57.038h2.875c2.645,0,4.516-0.391,5.609-1.172s1.641-2.078,1.641-3.891c0-1.792-0.547-3.094-1.641-3.906
			s-2.871-1.219-5.328-1.219h-3.156V57.038z"/>
		<path fill="#26358C" d="M507.585,82.819V39.1h31.938v9.531h-16.906v7.625h16.25v9.156h-16.25v7.875h17.469v9.531H507.585z"/>
		<path fill="#26358C" d="M555.539,82.819V50.381h-13.656V39.1h42.5v11.281h-13.625v32.438H555.539z"/>
		<path fill="#26358C" d="M588.119,82.819V39.1h31.938v9.531H603.15v7.625h16.25v9.156h-16.25v7.875h17.469v9.531H588.119z"/>
	</g>
</g>
</svg>
